<mxfile host="app.diagrams.net" modified="2022-04-07T11:36:36.528Z" agent="5.0 (Macintosh; Intel Mac OS X 10_15_7) AppleWebKit/537.36 (KHTML, like Gecko) Chrome/99.0.4844.84 Safari/537.36" etag="eZpTJ3rrNX3rpWpEmSCr" version="17.4.1" type="github">
  <diagram id="6-IwvoIAi5CxREMIh-6Z" name="Page-1">
    <mxGraphModel dx="946" dy="614" grid="1" gridSize="10" guides="1" tooltips="1" connect="1" arrows="1" fold="1" page="1" pageScale="1" pageWidth="827" pageHeight="1169" math="0" shadow="0">
      <root>
        <mxCell id="0" />
        <mxCell id="1" parent="0" />
        <mxCell id="7iNY9kYrvYGvYEZf-qSs-2" value="" style="sketch=0;outlineConnect=0;fontColor=#232F3E;gradientColor=none;fillColor=#3F8624;strokeColor=none;dashed=0;verticalLabelPosition=bottom;verticalAlign=top;align=center;html=1;fontSize=12;fontStyle=0;aspect=fixed;pointerEvents=1;shape=mxgraph.aws4.mqtt_protocol;" parent="1" vertex="1">
          <mxGeometry x="550" y="50" width="78" height="78" as="geometry" />
        </mxCell>
        <mxCell id="7iNY9kYrvYGvYEZf-qSs-6" value="" style="whiteSpace=wrap;html=1;aspect=fixed;" parent="1" vertex="1">
          <mxGeometry x="17" y="674" width="370" height="370" as="geometry" />
        </mxCell>
        <mxCell id="7iNY9kYrvYGvYEZf-qSs-3" value="PLC" style="sketch=0;outlineConnect=0;fontColor=#232F3E;gradientColor=none;fillColor=#3F8624;strokeColor=none;dashed=0;verticalLabelPosition=bottom;verticalAlign=top;align=center;html=1;fontSize=12;fontStyle=0;aspect=fixed;pointerEvents=1;shape=mxgraph.aws4.iot_thing_plc;" parent="1" vertex="1">
          <mxGeometry x="120" y="980" width="35" height="35" as="geometry" />
        </mxCell>
        <mxCell id="7iNY9kYrvYGvYEZf-qSs-4" value="Sensors&lt;br&gt;" style="sketch=0;outlineConnect=0;fontColor=#232F3E;gradientColor=none;fillColor=#3F8624;strokeColor=none;dashed=0;verticalLabelPosition=bottom;verticalAlign=top;align=center;html=1;fontSize=12;fontStyle=0;aspect=fixed;pointerEvents=1;shape=mxgraph.aws4.iot_thing_temperature_humidity_sensor;" parent="1" vertex="1">
          <mxGeometry x="119" y="923" width="35" height="35" as="geometry" />
        </mxCell>
        <mxCell id="7iNY9kYrvYGvYEZf-qSs-5" value="Factory 1" style="sketch=0;outlineConnect=0;fontColor=#232F3E;gradientColor=none;fillColor=#8F6439;strokeColor=none;dashed=0;verticalLabelPosition=bottom;verticalAlign=top;align=center;html=1;fontSize=12;fontStyle=0;aspect=fixed;pointerEvents=1;shape=mxgraph.aws4.factory;" parent="1" vertex="1">
          <mxGeometry x="160" y="1004" width="78" height="78" as="geometry" />
        </mxCell>
        <mxCell id="7iNY9kYrvYGvYEZf-qSs-9" value="IoT Gateway" style="sketch=0;outlineConnect=0;fontColor=#232F3E;gradientColor=none;fillColor=#3F8624;strokeColor=none;dashed=0;verticalLabelPosition=bottom;verticalAlign=top;align=center;html=1;fontSize=12;fontStyle=0;aspect=fixed;pointerEvents=1;shape=mxgraph.aws4.iot_device_gateway;" parent="1" vertex="1">
          <mxGeometry x="100" y="807.5" width="50" height="50" as="geometry" />
        </mxCell>
        <mxCell id="7iNY9kYrvYGvYEZf-qSs-10" value="" style="sketch=0;outlineConnect=0;fontColor=#232F3E;gradientColor=none;fillColor=#3F8624;strokeColor=none;dashed=0;verticalLabelPosition=bottom;verticalAlign=top;align=center;html=1;fontSize=12;fontStyle=0;aspect=fixed;pointerEvents=1;shape=mxgraph.aws4.windfarm;" parent="1" vertex="1">
          <mxGeometry x="120" y="882.5" width="35" height="35" as="geometry" />
        </mxCell>
        <mxCell id="7iNY9kYrvYGvYEZf-qSs-11" value="PLC" style="sketch=0;outlineConnect=0;fontColor=#232F3E;gradientColor=none;fillColor=#8F6439;strokeColor=none;dashed=0;verticalLabelPosition=bottom;verticalAlign=top;align=center;html=1;fontSize=12;fontStyle=0;aspect=fixed;pointerEvents=1;shape=mxgraph.aws4.iot_thing_plc;" parent="1" vertex="1">
          <mxGeometry x="30" y="843.5" width="35" height="35" as="geometry" />
        </mxCell>
        <mxCell id="7iNY9kYrvYGvYEZf-qSs-12" value="Sensors&lt;br&gt;" style="sketch=0;outlineConnect=0;fontColor=#232F3E;gradientColor=none;fillColor=#8F6439;strokeColor=none;dashed=0;verticalLabelPosition=bottom;verticalAlign=top;align=center;html=1;fontSize=12;fontStyle=0;aspect=fixed;pointerEvents=1;shape=mxgraph.aws4.iot_thing_temperature_humidity_sensor;" parent="1" vertex="1">
          <mxGeometry x="30" y="780" width="35" height="35" as="geometry" />
        </mxCell>
        <mxCell id="7iNY9kYrvYGvYEZf-qSs-14" value="" style="endArrow=classic;startArrow=classic;html=1;rounded=0;" parent="1" source="7iNY9kYrvYGvYEZf-qSs-4" target="7iNY9kYrvYGvYEZf-qSs-1" edge="1">
          <mxGeometry width="50" height="50" relative="1" as="geometry">
            <mxPoint x="166" y="978" as="sourcePoint" />
            <mxPoint x="216" y="928" as="targetPoint" />
          </mxGeometry>
        </mxCell>
        <mxCell id="7iNY9kYrvYGvYEZf-qSs-15" value="" style="endArrow=classic;html=1;rounded=0;startArrow=classic;startFill=1;" parent="1" source="7iNY9kYrvYGvYEZf-qSs-1" target="7iNY9kYrvYGvYEZf-qSs-10" edge="1">
          <mxGeometry width="50" height="50" relative="1" as="geometry">
            <mxPoint x="366" y="940" as="sourcePoint" />
            <mxPoint x="416" y="890" as="targetPoint" />
          </mxGeometry>
        </mxCell>
        <mxCell id="7iNY9kYrvYGvYEZf-qSs-17" value="" style="endArrow=classic;html=1;rounded=0;" parent="1" source="7iNY9kYrvYGvYEZf-qSs-9" target="7iNY9kYrvYGvYEZf-qSs-11" edge="1">
          <mxGeometry width="50" height="50" relative="1" as="geometry">
            <mxPoint x="156" y="950" as="sourcePoint" />
            <mxPoint x="206" y="900" as="targetPoint" />
          </mxGeometry>
        </mxCell>
        <mxCell id="7iNY9kYrvYGvYEZf-qSs-18" value="" style="endArrow=classic;html=1;rounded=0;" parent="1" source="7iNY9kYrvYGvYEZf-qSs-9" target="7iNY9kYrvYGvYEZf-qSs-12" edge="1">
          <mxGeometry width="50" height="50" relative="1" as="geometry">
            <mxPoint x="170" y="791.0836501901141" as="sourcePoint" />
            <mxPoint x="81" y="812.7414448669201" as="targetPoint" />
          </mxGeometry>
        </mxCell>
        <mxCell id="7iNY9kYrvYGvYEZf-qSs-20" value="" style="endArrow=classic;html=1;rounded=0;startArrow=classic;startFill=1;" parent="1" source="7iNY9kYrvYGvYEZf-qSs-1" target="7iNY9kYrvYGvYEZf-qSs-9" edge="1">
          <mxGeometry width="50" height="50" relative="1" as="geometry">
            <mxPoint x="376" y="950" as="sourcePoint" />
            <mxPoint x="426" y="900" as="targetPoint" />
          </mxGeometry>
        </mxCell>
        <mxCell id="7iNY9kYrvYGvYEZf-qSs-21" value="" style="endArrow=classic;startArrow=classic;html=1;rounded=0;" parent="1" source="7iNY9kYrvYGvYEZf-qSs-3" target="7iNY9kYrvYGvYEZf-qSs-1" edge="1">
          <mxGeometry width="50" height="50" relative="1" as="geometry">
            <mxPoint x="81" y="953.8632326820605" as="sourcePoint" />
            <mxPoint x="306" y="907.1047957371226" as="targetPoint" />
          </mxGeometry>
        </mxCell>
        <mxCell id="7iNY9kYrvYGvYEZf-qSs-23" value="" style="group" parent="1" vertex="1" connectable="0">
          <mxGeometry x="297" y="850" width="78" height="193" as="geometry" />
        </mxCell>
        <mxCell id="7iNY9kYrvYGvYEZf-qSs-1" value="MQTT Broker" style="sketch=0;outlineConnect=0;fontColor=#232F3E;gradientColor=none;fillColor=#3F8624;strokeColor=none;dashed=0;verticalLabelPosition=bottom;verticalAlign=top;align=center;html=1;fontSize=12;fontStyle=0;aspect=fixed;pointerEvents=1;shape=mxgraph.aws4.mqtt_protocol;" parent="7iNY9kYrvYGvYEZf-qSs-23" vertex="1">
          <mxGeometry width="78" height="78" as="geometry" />
        </mxCell>
        <mxCell id="7iNY9kYrvYGvYEZf-qSs-8" value="" style="shape=datastore;whiteSpace=wrap;html=1;fillColor=#d5e8d4;strokeColor=#82b366;" parent="7iNY9kYrvYGvYEZf-qSs-23" vertex="1">
          <mxGeometry x="14" y="143" width="50" height="50" as="geometry" />
        </mxCell>
        <mxCell id="7iNY9kYrvYGvYEZf-qSs-7" value="" style="aspect=fixed;html=1;points=[];align=center;image;fontSize=12;image=img/lib/azure2/management_governance/Resource_Graph_Explorer.svg;imageBackground=none;" parent="7iNY9kYrvYGvYEZf-qSs-23" vertex="1">
          <mxGeometry x="25.5" y="164.20999999999998" width="27" height="25.79" as="geometry" />
        </mxCell>
        <mxCell id="7iNY9kYrvYGvYEZf-qSs-22" value="" style="endArrow=classic;html=1;rounded=0;entryX=0.5;entryY=0;entryDx=0;entryDy=0;" parent="7iNY9kYrvYGvYEZf-qSs-23" source="7iNY9kYrvYGvYEZf-qSs-1" target="7iNY9kYrvYGvYEZf-qSs-8" edge="1">
          <mxGeometry width="50" height="50" relative="1" as="geometry">
            <mxPoint x="270" y="470" as="sourcePoint" />
            <mxPoint x="320" y="420" as="targetPoint" />
          </mxGeometry>
        </mxCell>
        <mxCell id="7iNY9kYrvYGvYEZf-qSs-67" value="MES" style="aspect=fixed;perimeter=ellipsePerimeter;html=1;align=center;shadow=0;dashed=0;fontColor=#4277BB;labelBackgroundColor=#ffffff;fontSize=12;spacingTop=3;image;image=img/lib/ibm/applications/iot_application.svg;fillColor=#8F6439;" parent="1" vertex="1">
          <mxGeometry x="220" y="704.5" width="35" height="35" as="geometry" />
        </mxCell>
        <mxCell id="7iNY9kYrvYGvYEZf-qSs-68" value="HMI" style="shape=image;html=1;verticalAlign=top;verticalLabelPosition=bottom;labelBackgroundColor=#ffffff;imageAspect=0;aspect=fixed;image=https://cdn0.iconfinder.com/data/icons/apple-apps/100/Apple_Stock-128.png;fillColor=#8F6439;" parent="1" vertex="1">
          <mxGeometry x="155" y="704.5" width="35" height="35" as="geometry" />
        </mxCell>
        <mxCell id="7iNY9kYrvYGvYEZf-qSs-69" value="" style="endArrow=classic;html=1;rounded=0;startArrow=classic;startFill=1;entryX=1;entryY=0.5;entryDx=0;entryDy=0;" parent="1" source="7iNY9kYrvYGvYEZf-qSs-1" target="7iNY9kYrvYGvYEZf-qSs-68" edge="1">
          <mxGeometry width="50" height="50" relative="1" as="geometry">
            <mxPoint x="307" y="869.5562913907286" as="sourcePoint" />
            <mxPoint x="220" y="803.8741721854306" as="targetPoint" />
          </mxGeometry>
        </mxCell>
        <mxCell id="7iNY9kYrvYGvYEZf-qSs-70" value="" style="endArrow=classic;html=1;rounded=0;startArrow=classic;startFill=1;entryX=1;entryY=0.75;entryDx=0;entryDy=0;" parent="1" source="7iNY9kYrvYGvYEZf-qSs-1" target="7iNY9kYrvYGvYEZf-qSs-67" edge="1">
          <mxGeometry width="50" height="50" relative="1" as="geometry">
            <mxPoint x="330.285294117647" y="860" as="sourcePoint" />
            <mxPoint x="284.55147058823536" y="746.5" as="targetPoint" />
          </mxGeometry>
        </mxCell>
        <mxCell id="7iNY9kYrvYGvYEZf-qSs-75" value="SCADA" style="shape=image;html=1;verticalAlign=top;verticalLabelPosition=bottom;labelBackgroundColor=#ffffff;imageAspect=0;aspect=fixed;image=https://cdn4.iconfinder.com/data/icons/essential-part-5/32/491-Control-128.png;fillColor=#8F6439;imageBackground=default;imageBorder=default;" parent="1" vertex="1">
          <mxGeometry x="90" y="730.5" width="35" height="35" as="geometry" />
        </mxCell>
        <mxCell id="7iNY9kYrvYGvYEZf-qSs-77" value="" style="endArrow=classic;html=1;rounded=0;startArrow=classic;startFill=1;entryX=1;entryY=0.5;entryDx=0;entryDy=0;" parent="1" source="7iNY9kYrvYGvYEZf-qSs-1" target="7iNY9kYrvYGvYEZf-qSs-75" edge="1">
          <mxGeometry width="50" height="50" relative="1" as="geometry">
            <mxPoint x="312.79883381924196" y="860" as="sourcePoint" />
            <mxPoint x="200" y="727.5" as="targetPoint" />
          </mxGeometry>
        </mxCell>
        <mxCell id="7iNY9kYrvYGvYEZf-qSs-79" value="" style="whiteSpace=wrap;html=1;aspect=fixed;" parent="1" vertex="1">
          <mxGeometry x="404" y="674" width="370" height="370" as="geometry" />
        </mxCell>
        <mxCell id="7iNY9kYrvYGvYEZf-qSs-80" value="PLC" style="sketch=0;outlineConnect=0;fontColor=#232F3E;gradientColor=none;fillColor=#3F8624;strokeColor=none;dashed=0;verticalLabelPosition=bottom;verticalAlign=top;align=center;html=1;fontSize=12;fontStyle=0;aspect=fixed;pointerEvents=1;shape=mxgraph.aws4.iot_thing_plc;" parent="1" vertex="1">
          <mxGeometry x="507" y="980" width="35" height="35" as="geometry" />
        </mxCell>
        <mxCell id="7iNY9kYrvYGvYEZf-qSs-81" value="Sensors&lt;br&gt;" style="sketch=0;outlineConnect=0;fontColor=#232F3E;gradientColor=none;fillColor=#3F8624;strokeColor=none;dashed=0;verticalLabelPosition=bottom;verticalAlign=top;align=center;html=1;fontSize=12;fontStyle=0;aspect=fixed;pointerEvents=1;shape=mxgraph.aws4.iot_thing_temperature_humidity_sensor;" parent="1" vertex="1">
          <mxGeometry x="506" y="923" width="35" height="35" as="geometry" />
        </mxCell>
        <mxCell id="7iNY9kYrvYGvYEZf-qSs-82" value="Factory 2" style="sketch=0;outlineConnect=0;fontColor=#232F3E;gradientColor=none;fillColor=#8F6439;strokeColor=none;dashed=0;verticalLabelPosition=bottom;verticalAlign=top;align=center;html=1;fontSize=12;fontStyle=0;aspect=fixed;pointerEvents=1;shape=mxgraph.aws4.factory;" parent="1" vertex="1">
          <mxGeometry x="547" y="1004" width="78" height="78" as="geometry" />
        </mxCell>
        <mxCell id="7iNY9kYrvYGvYEZf-qSs-83" value="IoT Gateway" style="sketch=0;outlineConnect=0;fontColor=#232F3E;gradientColor=none;fillColor=#3F8624;strokeColor=none;dashed=0;verticalLabelPosition=bottom;verticalAlign=top;align=center;html=1;fontSize=12;fontStyle=0;aspect=fixed;pointerEvents=1;shape=mxgraph.aws4.iot_device_gateway;" parent="1" vertex="1">
          <mxGeometry x="487" y="807.5" width="50" height="50" as="geometry" />
        </mxCell>
        <mxCell id="7iNY9kYrvYGvYEZf-qSs-84" value="" style="sketch=0;outlineConnect=0;fontColor=#232F3E;gradientColor=none;fillColor=#3F8624;strokeColor=none;dashed=0;verticalLabelPosition=bottom;verticalAlign=top;align=center;html=1;fontSize=12;fontStyle=0;aspect=fixed;pointerEvents=1;shape=mxgraph.aws4.windfarm;" parent="1" vertex="1">
          <mxGeometry x="507" y="882.5" width="35" height="35" as="geometry" />
        </mxCell>
        <mxCell id="7iNY9kYrvYGvYEZf-qSs-85" value="PLC" style="sketch=0;outlineConnect=0;fontColor=#232F3E;gradientColor=none;fillColor=#8F6439;strokeColor=none;dashed=0;verticalLabelPosition=bottom;verticalAlign=top;align=center;html=1;fontSize=12;fontStyle=0;aspect=fixed;pointerEvents=1;shape=mxgraph.aws4.iot_thing_plc;" parent="1" vertex="1">
          <mxGeometry x="417" y="843.5" width="35" height="35" as="geometry" />
        </mxCell>
        <mxCell id="7iNY9kYrvYGvYEZf-qSs-86" value="Sensors&lt;br&gt;" style="sketch=0;outlineConnect=0;fontColor=#232F3E;gradientColor=none;fillColor=#8F6439;strokeColor=none;dashed=0;verticalLabelPosition=bottom;verticalAlign=top;align=center;html=1;fontSize=12;fontStyle=0;aspect=fixed;pointerEvents=1;shape=mxgraph.aws4.iot_thing_temperature_humidity_sensor;" parent="1" vertex="1">
          <mxGeometry x="417" y="780" width="35" height="35" as="geometry" />
        </mxCell>
        <mxCell id="7iNY9kYrvYGvYEZf-qSs-87" value="" style="endArrow=classic;startArrow=classic;html=1;rounded=0;" parent="1" source="7iNY9kYrvYGvYEZf-qSs-81" target="7iNY9kYrvYGvYEZf-qSs-94" edge="1">
          <mxGeometry width="50" height="50" relative="1" as="geometry">
            <mxPoint x="553" y="978" as="sourcePoint" />
            <mxPoint x="603" y="928" as="targetPoint" />
          </mxGeometry>
        </mxCell>
        <mxCell id="7iNY9kYrvYGvYEZf-qSs-88" value="" style="endArrow=classic;html=1;rounded=0;startArrow=classic;startFill=1;" parent="1" source="7iNY9kYrvYGvYEZf-qSs-94" target="7iNY9kYrvYGvYEZf-qSs-84" edge="1">
          <mxGeometry width="50" height="50" relative="1" as="geometry">
            <mxPoint x="753" y="940" as="sourcePoint" />
            <mxPoint x="803" y="890" as="targetPoint" />
          </mxGeometry>
        </mxCell>
        <mxCell id="7iNY9kYrvYGvYEZf-qSs-89" value="" style="endArrow=classic;html=1;rounded=0;" parent="1" source="7iNY9kYrvYGvYEZf-qSs-83" target="7iNY9kYrvYGvYEZf-qSs-85" edge="1">
          <mxGeometry width="50" height="50" relative="1" as="geometry">
            <mxPoint x="543" y="950" as="sourcePoint" />
            <mxPoint x="593" y="900" as="targetPoint" />
          </mxGeometry>
        </mxCell>
        <mxCell id="7iNY9kYrvYGvYEZf-qSs-90" value="" style="endArrow=classic;html=1;rounded=0;" parent="1" source="7iNY9kYrvYGvYEZf-qSs-83" target="7iNY9kYrvYGvYEZf-qSs-86" edge="1">
          <mxGeometry width="50" height="50" relative="1" as="geometry">
            <mxPoint x="557" y="791.0836501901141" as="sourcePoint" />
            <mxPoint x="468" y="812.7414448669201" as="targetPoint" />
          </mxGeometry>
        </mxCell>
        <mxCell id="7iNY9kYrvYGvYEZf-qSs-91" value="" style="endArrow=classic;html=1;rounded=0;startArrow=classic;startFill=1;" parent="1" source="7iNY9kYrvYGvYEZf-qSs-94" target="7iNY9kYrvYGvYEZf-qSs-83" edge="1">
          <mxGeometry width="50" height="50" relative="1" as="geometry">
            <mxPoint x="763" y="950" as="sourcePoint" />
            <mxPoint x="813" y="900" as="targetPoint" />
          </mxGeometry>
        </mxCell>
        <mxCell id="7iNY9kYrvYGvYEZf-qSs-92" value="" style="endArrow=classic;startArrow=classic;html=1;rounded=0;" parent="1" source="7iNY9kYrvYGvYEZf-qSs-80" target="7iNY9kYrvYGvYEZf-qSs-94" edge="1">
          <mxGeometry width="50" height="50" relative="1" as="geometry">
            <mxPoint x="468" y="953.8632326820605" as="sourcePoint" />
            <mxPoint x="693" y="907.1047957371226" as="targetPoint" />
          </mxGeometry>
        </mxCell>
        <mxCell id="7iNY9kYrvYGvYEZf-qSs-93" value="" style="group" parent="1" vertex="1" connectable="0">
          <mxGeometry x="684" y="850" width="78" height="193" as="geometry" />
        </mxCell>
        <mxCell id="7iNY9kYrvYGvYEZf-qSs-94" value="MQTT Broker" style="sketch=0;outlineConnect=0;fontColor=#232F3E;gradientColor=none;fillColor=#3F8624;strokeColor=none;dashed=0;verticalLabelPosition=bottom;verticalAlign=top;align=center;html=1;fontSize=12;fontStyle=0;aspect=fixed;pointerEvents=1;shape=mxgraph.aws4.mqtt_protocol;" parent="7iNY9kYrvYGvYEZf-qSs-93" vertex="1">
          <mxGeometry width="78" height="78" as="geometry" />
        </mxCell>
        <mxCell id="7iNY9kYrvYGvYEZf-qSs-95" value="" style="shape=datastore;whiteSpace=wrap;html=1;fillColor=#d5e8d4;strokeColor=#82b366;" parent="7iNY9kYrvYGvYEZf-qSs-93" vertex="1">
          <mxGeometry x="14" y="143" width="50" height="50" as="geometry" />
        </mxCell>
        <mxCell id="7iNY9kYrvYGvYEZf-qSs-96" value="" style="aspect=fixed;html=1;points=[];align=center;image;fontSize=12;image=img/lib/azure2/management_governance/Resource_Graph_Explorer.svg;imageBackground=none;" parent="7iNY9kYrvYGvYEZf-qSs-93" vertex="1">
          <mxGeometry x="25.5" y="164.20999999999998" width="27" height="25.79" as="geometry" />
        </mxCell>
        <mxCell id="7iNY9kYrvYGvYEZf-qSs-97" value="" style="endArrow=classic;html=1;rounded=0;entryX=0.5;entryY=0;entryDx=0;entryDy=0;" parent="7iNY9kYrvYGvYEZf-qSs-93" source="7iNY9kYrvYGvYEZf-qSs-94" target="7iNY9kYrvYGvYEZf-qSs-95" edge="1">
          <mxGeometry width="50" height="50" relative="1" as="geometry">
            <mxPoint x="270" y="470" as="sourcePoint" />
            <mxPoint x="320" y="420" as="targetPoint" />
          </mxGeometry>
        </mxCell>
        <mxCell id="7iNY9kYrvYGvYEZf-qSs-98" value="MES" style="aspect=fixed;perimeter=ellipsePerimeter;html=1;align=center;shadow=0;dashed=0;fontColor=#4277BB;labelBackgroundColor=#ffffff;fontSize=12;spacingTop=3;image;image=img/lib/ibm/applications/iot_application.svg;fillColor=#8F6439;" parent="1" vertex="1">
          <mxGeometry x="607" y="704.5" width="35" height="35" as="geometry" />
        </mxCell>
        <mxCell id="7iNY9kYrvYGvYEZf-qSs-99" value="HMI" style="shape=image;html=1;verticalAlign=top;verticalLabelPosition=bottom;labelBackgroundColor=#ffffff;imageAspect=0;aspect=fixed;image=https://cdn0.iconfinder.com/data/icons/apple-apps/100/Apple_Stock-128.png;fillColor=#8F6439;" parent="1" vertex="1">
          <mxGeometry x="542" y="704.5" width="35" height="35" as="geometry" />
        </mxCell>
        <mxCell id="7iNY9kYrvYGvYEZf-qSs-100" value="" style="endArrow=classic;html=1;rounded=0;startArrow=classic;startFill=1;entryX=1;entryY=0.5;entryDx=0;entryDy=0;" parent="1" source="7iNY9kYrvYGvYEZf-qSs-94" target="7iNY9kYrvYGvYEZf-qSs-99" edge="1">
          <mxGeometry width="50" height="50" relative="1" as="geometry">
            <mxPoint x="694" y="869.5562913907286" as="sourcePoint" />
            <mxPoint x="607" y="803.8741721854306" as="targetPoint" />
          </mxGeometry>
        </mxCell>
        <mxCell id="7iNY9kYrvYGvYEZf-qSs-101" value="" style="endArrow=classic;html=1;rounded=0;startArrow=classic;startFill=1;entryX=1;entryY=0.75;entryDx=0;entryDy=0;" parent="1" source="7iNY9kYrvYGvYEZf-qSs-94" target="7iNY9kYrvYGvYEZf-qSs-98" edge="1">
          <mxGeometry width="50" height="50" relative="1" as="geometry">
            <mxPoint x="717.285294117647" y="860" as="sourcePoint" />
            <mxPoint x="671.5514705882354" y="746.5" as="targetPoint" />
          </mxGeometry>
        </mxCell>
        <mxCell id="7iNY9kYrvYGvYEZf-qSs-102" value="SCADA" style="shape=image;html=1;verticalAlign=top;verticalLabelPosition=bottom;labelBackgroundColor=#ffffff;imageAspect=0;aspect=fixed;image=https://cdn4.iconfinder.com/data/icons/essential-part-5/32/491-Control-128.png;fillColor=#8F6439;imageBackground=default;imageBorder=default;" parent="1" vertex="1">
          <mxGeometry x="477" y="730.5" width="35" height="35" as="geometry" />
        </mxCell>
        <mxCell id="7iNY9kYrvYGvYEZf-qSs-103" value="" style="endArrow=classic;html=1;rounded=0;startArrow=classic;startFill=1;entryX=1;entryY=0.5;entryDx=0;entryDy=0;" parent="1" source="7iNY9kYrvYGvYEZf-qSs-94" target="7iNY9kYrvYGvYEZf-qSs-102" edge="1">
          <mxGeometry width="50" height="50" relative="1" as="geometry">
            <mxPoint x="699.798833819242" y="860" as="sourcePoint" />
            <mxPoint x="587" y="727.5" as="targetPoint" />
          </mxGeometry>
        </mxCell>
      </root>
    </mxGraphModel>
  </diagram>
</mxfile>
